<svg version="1.1" id="Layer_1" xmlns="http://www.w3.org/2000/svg" xmlns:xlink="http://www.w3.org/1999/xlink" x="0px" y="0px"
	 width="100%" viewBox="0 0 450 336" enable-background="new 0 0 416 336" xml:space="preserve">
<path fill="#000000" opacity="1.000000" stroke="none" 
	d="
M294.504578,36.213089 
	C300.335083,39.195831 304.800446,43.795742 309.885681,46.699909 
	C320.192871,52.586315 321.328522,63.082287 325.890991,71.918907 
	C331.115021,82.036987 333.379242,93.126129 334.854401,104.132805 
	C335.939545,112.229477 337.471954,120.602676 335.800903,128.936264 
	C334.632599,134.762497 336.691742,139.548370 340.594940,143.759003 
	C344.578918,148.056808 348.348389,152.381790 347.409668,159.001175 
	C346.847076,162.968262 344.946136,166.161362 342.746643,169.294998 
	C336.458435,178.253769 336.724182,182.735519 344.655457,190.042618 
	C347.273071,192.454224 347.943268,194.436996 346.528625,197.787033 
	C344.923065,201.589096 344.167786,205.742111 342.890411,209.693283 
	C341.745331,213.235336 343.937897,216.227112 344.768036,219.231125 
	C347.101013,227.673370 348.081024,236.026810 347.458771,244.775070 
	C346.942596,252.031570 348.210205,252.475189 354.669983,249.665192 
	C363.627136,245.768829 368.638214,238.941345 370.720978,229.619629 
	C371.778870,224.884781 374.414337,223.747513 378.857056,225.948761 
	C384.943390,228.964371 391.410278,242.546539 390.615936,249.564117 
	C390.096069,254.157043 390.361176,258.852966 390.469879,263.498169 
	C390.548157,266.843811 389.718506,269.418335 387.034302,271.814392 
	C382.753448,275.635620 383.074463,277.129364 387.694031,280.728333 
	C387.825165,280.830475 387.975922,280.907440 388.106903,281.009735 
	C391.666260,283.789093 396.301056,286.677887 393.880371,291.824677 
	C391.813782,296.218628 386.852631,293.931671 383.030609,294.045746 
	C379.081360,294.163696 375.192230,293.962799 371.245911,293.651825 
	C366.922180,293.311188 362.280151,296.327515 361.168396,299.819611 
	C356.294861,315.127838 343.966888,318.307037 330.590790,320.022400 
	C310.393707,322.612457 290.147919,321.230682 269.900116,320.488251 
	C256.426727,319.994263 242.928513,320.163269 229.441147,320.071472 
	C223.777603,320.032898 218.112732,320.141144 212.449936,320.067993 
	C210.635376,320.044586 208.519165,320.177399 207.071213,319.331299 
	C202.784088,316.826141 198.196838,317.299561 193.583115,316.870544 
	C186.651062,316.225952 179.852814,315.337646 172.784744,315.676056 
	C168.121078,315.899323 163.264359,313.495728 158.612457,311.919098 
	C156.533142,311.214355 155.472916,309.578217 157.256699,307.233521 
	C159.496231,304.289764 160.696854,300.818237 161.799637,297.309357 
	C162.501984,295.074615 163.739105,293.378052 166.002869,292.110779 
	C171.021439,289.301392 173.131943,283.877167 174.339355,278.961273 
	C176.981964,268.202240 179.576309,257.372650 180.955353,246.326675 
	C181.122223,244.990097 181.752609,243.644791 180.204895,242.807343 
	C178.960236,242.133881 177.507233,242.152832 176.371124,242.897354 
	C174.876587,243.876724 173.323013,244.753937 172.280823,246.432831 
	C169.898315,250.270966 167.583038,254.089691 161.681015,251.980057 
	C159.585510,251.231064 158.668060,253.679718 158.290512,255.917160 
	C156.745911,265.070892 155.025406,274.256531 150.665741,282.549591 
	C144.332855,294.596191 134.504929,302.773438 122.114273,308.480560 
	C116.049751,311.273865 109.915512,314.179932 104.366119,318.259430 
	C100.288353,321.257141 94.875237,322.846375 89.744362,322.693451 
	C78.395073,322.355225 66.848442,323.821014 55.792370,319.708191 
	C52.402882,318.447357 48.926727,317.445648 45.278728,316.896637 
	C41.419796,316.315857 38.091103,314.844391 35.577030,311.111389 
	C32.412167,306.412079 27.277439,303.578400 21.803654,300.564056 
	C25.978251,295.591644 31.653133,293.413849 36.658199,290.529938 
	C54.066002,280.499603 72.876297,273.124969 90.079399,262.689819 
	C93.472000,260.631958 95.067734,261.507599 96.371849,264.945068 
	C97.416306,267.698120 98.962219,270.260925 100.363846,273.064697 
	C102.985123,272.907715 103.797890,271.632172 103.236832,269.121552 
	C100.980240,259.023682 102.518440,256.844360 113.683159,254.421555 
	C115.731926,258.110687 117.816681,261.864624 120.032547,265.854614 
	C123.891296,265.793457 124.973640,264.099884 123.171272,260.556641 
	C122.721550,259.672577 122.144753,258.841553 121.788780,257.923187 
	C118.726387,250.022324 118.808517,250.152893 126.450195,246.130508 
	C130.082642,244.218475 131.963028,245.217804 133.256821,248.779510 
	C133.935745,250.648514 134.825226,252.454880 135.769455,254.208862 
	C136.415894,255.409714 137.504791,255.635605 138.760422,254.971558 
	C140.008926,254.311295 140.437424,253.359802 139.794388,252.091293 
	C138.665695,249.864700 137.471252,247.671402 136.301437,245.465698 
	C135.052795,243.111359 135.432831,241.440765 138.076477,240.305664 
	C146.150299,236.839050 152.566360,231.896576 155.197876,222.832123 
	C156.106888,219.700974 157.970856,216.353989 161.994553,215.432602 
	C163.293106,215.135239 163.969147,213.812210 164.778580,212.716675 
	C168.411194,207.800049 171.886292,202.823685 176.857071,198.958603 
	C182.527740,194.549316 181.530197,189.060684 174.538956,187.354691 
	C165.152603,185.064240 157.960739,179.182098 150.138931,174.259491 
	C147.668198,172.704544 145.960739,170.462128 144.909012,167.751251 
	C140.525269,156.452042 136.328781,145.022614 136.102539,132.767700 
	C135.915268,122.622658 137.688782,112.567375 140.360687,102.800720 
	C142.230194,95.967087 143.633087,88.986778 146.894226,82.502983 
	C154.019104,68.337212 164.285873,57.388523 178.042465,49.500473 
	C184.262924,45.933655 191.718597,44.082771 197.018692,39.833992 
	C205.181259,33.290531 214.466125,32.128487 223.799896,30.061249 
	C228.926636,28.925779 234.103485,29.848398 239.242905,29.843166 
	C251.706985,29.830479 264.259491,28.377460 276.612518,30.712563 
	C282.586578,31.841841 288.326385,34.210400 294.504578,36.213089 
M237.810883,205.498093 
	C237.321091,204.264481 236.245728,204.218613 235.342957,204.632965 
	C231.475311,206.408188 227.638870,208.256210 223.838806,210.172409 
	C220.537064,211.837326 220.503098,214.120453 222.820175,216.999115 
	C228.705627,214.269379 235.911880,213.698471 238.180099,206.493042 
	C238.620926,207.869110 237.934769,210.258682 240.909317,209.235275 
	C256.268280,203.950974 271.628052,198.667908 287.025238,193.496628 
	C290.107239,192.461502 293.173492,190.914841 296.735352,191.817627 
	C280.168945,198.054092 262.231201,201.421524 249.752777,215.381470 
	C251.192993,215.931793 252.774567,215.481979 254.354721,214.951035 
	C262.219604,212.308411 271.671783,216.982407 278.541992,209.713730 
	C278.626923,209.623871 278.863922,209.670761 279.030304,209.665878 
	C289.674591,209.352875 300.091827,206.945145 310.749603,206.427185 
	C318.226044,206.063843 325.698334,205.830490 333.176422,205.567673 
	C337.932556,205.400528 340.905731,201.559921 342.151306,197.965759 
	C343.267395,194.745132 339.145966,192.849854 336.344269,191.617188 
	C330.060883,188.852646 328.118622,181.999924 332.215210,176.581894 
	C335.221771,172.605499 338.112213,168.534775 340.907623,164.406677 
	C346.146606,156.670135 344.077179,150.960403 334.865662,147.753601 
	C332.247375,151.473343 329.208038,155.013947 329.220551,160.412155 
	C332.791840,158.543091 333.769531,154.973389 336.129089,151.132385 
	C336.724548,159.452560 331.592224,162.687027 326.751007,165.699493 
	C308.888733,176.814514 289.625305,185.055984 269.748108,191.676071 
	C260.193848,194.858093 250.827103,197.856583 243.469757,205.068069 
	C241.792297,206.712296 239.999512,206.790665 237.810883,205.498093 
M145.893143,153.692581 
	C146.470657,155.925552 146.652847,158.261047 148.222946,160.181976 
	C157.756851,171.846268 168.318298,181.499863 184.182800,184.103821 
	C209.845703,188.316055 235.015717,187.754364 259.671875,178.917603 
	C263.624939,177.500824 266.999573,177.726669 270.581146,179.917725 
	C272.622101,181.166260 274.923706,183.195358 277.451172,182.227463 
	C282.877777,180.149384 288.725494,181.023651 294.238708,179.070297 
	C301.658386,176.441422 308.149170,172.008270 313.346130,166.847519 
	C319.365814,160.869781 323.460602,152.682770 326.044098,144.457108 
	C327.135620,140.981857 329.065887,135.924118 326.353424,132.599976 
	C322.610870,128.013519 323.414490,124.138832 325.212036,119.266014 
	C327.951416,111.839958 331.141266,104.199432 329.510925,96.079277 
	C328.045380,88.779686 326.020782,81.564308 322.887390,74.701530 
	C317.867004,63.705883 311.933777,53.553303 300.700897,47.692493 
	C286.808563,40.444088 271.906921,37.078037 256.367523,36.449135 
	C248.712952,36.139339 241.036591,36.374084 233.370132,36.348904 
	C229.709030,36.336880 226.006271,36.006870 223.723312,39.923164 
	C222.880676,41.368622 221.114929,41.509068 219.646667,41.154888 
	C213.765976,39.736328 208.575760,41.958897 203.327454,44.000938 
	C192.960709,48.034496 184.108688,54.594055 175.363998,61.207283 
	C167.484116,67.166489 161.211411,74.630203 156.742462,83.575394 
	C155.360031,86.342499 155.104324,89.341324 153.489075,92.182159 
	C147.537750,102.648972 144.271011,114.073677 143.464981,126.212402 
	C142.863785,135.266144 144.311157,144.074219 145.893143,153.692581 
M346.544342,272.695435 
	C343.135529,266.105591 344.195251,258.698395 342.726715,251.748856 
	C340.917450,243.186935 341.930359,234.084305 337.936462,225.941833 
	C333.263824,216.415710 335.072052,213.850555 321.581421,214.301590 
	C304.375946,214.876801 287.835541,219.377335 270.922943,221.592255 
	C265.151978,222.348053 264.181122,225.436188 266.720245,230.625000 
	C269.573792,236.456268 272.475464,242.441284 271.065247,249.158905 
	C270.286987,252.866196 271.817017,253.509293 274.833862,253.688828 
	C278.727661,253.920517 282.759186,253.329010 287.494720,255.493057 
	C280.871704,262.683319 270.770050,259.152405 264.138275,265.048859 
	C264.473267,266.113220 266.671722,268.155121 263.338348,268.972839 
	C267.270569,271.946869 271.932251,273.072296 276.287842,274.575806 
	C276.330719,278.350677 271.656158,279.843445 272.197479,282.472809 
	C272.777008,285.287842 274.763397,287.877655 273.756226,291.966827 
	C282.140869,289.984528 288.825836,293.991150 295.880096,296.058594 
	C303.300201,298.233246 310.788483,300.846222 313.422729,309.599457 
	C313.885651,311.137695 315.327362,312.435425 317.190308,312.521637 
	C329.360352,313.084778 341.177002,312.158264 350.657562,303.218964 
	C353.696594,300.353424 356.876373,296.992157 355.607513,292.393982 
	C353.741638,285.632233 352.650757,278.371552 346.544342,272.695435 
M79.136276,316.338348 
	C80.955254,316.749634 82.728409,316.489838 84.564781,316.246338 
	C97.484230,314.532959 108.273163,307.111481 120.200607,302.745605 
	C139.276306,295.763184 145.781540,278.200836 152.095505,259.377625 
	C149.030426,262.333221 145.975174,260.919434 143.542831,263.000519 
	C133.958588,271.200745 124.183899,279.243286 112.392235,284.191315 
	C109.770058,285.291626 106.346237,288.262360 104.122917,284.257263 
	C101.775230,280.028076 106.809158,279.879944 108.713814,278.198212 
	C112.449425,274.899811 118.092567,274.202393 121.404259,269.270691 
	C117.888344,268.568939 115.783066,266.990051 114.787773,263.727203 
	C114.261711,262.002625 112.748436,260.142456 110.299622,260.419037 
	C108.741402,260.595062 107.416191,261.441498 106.651749,262.786652 
	C105.352348,265.073090 106.991379,267.246552 107.962387,268.792206 
	C109.950920,271.957672 109.209694,273.362915 106.155373,274.894226 
	C93.702675,281.137573 81.247101,287.386688 68.983932,293.989044 
	C65.615959,295.802338 61.637188,296.840881 58.621731,300.170441 
	C70.655731,306.312683 82.795052,303.065277 95.417740,301.559814 
	C93.893562,303.846069 92.395470,304.076660 90.953819,304.308044 
	C85.041878,305.256775 79.003395,304.901215 73.125511,305.581055 
	C64.848953,306.538330 57.648407,299.477234 48.874451,303.702179 
	C49.429680,301.216156 51.970940,301.215118 52.048546,299.350769 
	C45.567047,291.831055 42.778133,291.467712 35.861141,296.803070 
	C33.917473,298.302277 33.187160,299.964264 34.527004,301.808960 
	C37.824444,306.348969 41.188324,311.442261 47.494522,311.491425 
	C58.044384,311.573730 67.903244,315.804718 79.136276,316.338348 
M214.638168,257.217651 
	C212.913116,263.245605 212.351608,269.563232 214.005585,275.443512 
	C215.827362,281.920380 215.125793,287.338776 211.788712,293.034546 
	C209.333038,297.225922 207.244843,301.807190 207.350327,306.473389 
	C216.231781,311.322235 223.728119,308.913818 231.077820,303.867004 
	C230.489609,301.691467 229.612106,299.916992 227.839569,298.816010 
	C224.493149,296.737488 223.394684,293.540833 223.273666,289.893646 
	C223.148392,286.118347 223.270706,282.374390 220.788864,279.091217 
	C219.621262,277.546600 220.128311,275.962555 221.790924,274.813965 
	C223.704926,273.491730 225.612564,272.153992 227.450928,270.730011 
	C230.972229,268.002380 234.162384,264.788147 233.621689,259.996094 
	C232.685791,251.701126 237.384232,246.012741 242.418579,240.800476 
	C248.135635,234.881378 254.621826,229.705154 260.773682,224.205994 
	C257.344604,225.182434 255.565201,222.108582 252.708191,221.179474 
	C251.114426,225.611252 247.324799,226.254227 243.415314,227.439880 
	C236.061172,229.670212 228.743713,232.824829 224.777985,239.874619 
	C221.610748,245.504959 218.963043,251.416656 214.638168,257.217651 
M360.066498,272.379913 
	C360.950897,275.281464 359.483215,277.867432 358.730438,280.456940 
	C357.699066,284.004608 359.175720,286.802521 361.069183,289.217133 
	C362.891174,291.540619 365.648285,290.376923 368.030518,289.598419 
	C370.791809,288.695984 373.227966,288.330933 376.427887,289.093658 
	C380.130280,289.976166 383.952454,292.736633 388.309143,290.969940 
	C386.642578,286.272797 383.457458,283.275818 379.169556,282.065430 
	C375.382172,280.996368 374.801575,280.421631 377.584320,277.090485 
	C386.575195,266.327728 388.460266,253.898880 384.615875,240.597000 
	C383.583191,237.023819 381.778839,233.668945 378.156433,231.192490 
	C376.139496,238.331665 374.237457,245.064301 372.409027,251.536285 
	C369.641052,251.597107 369.877991,248.604111 367.800232,248.834061 
	C351.908386,259.710846 351.908386,259.710846 353.664398,269.786652 
	C355.589417,270.577637 357.996948,270.197266 360.066498,272.379913 
M189.096634,292.451721 
	C190.065628,294.874939 189.759964,297.691406 191.256638,299.945557 
	C193.727509,299.971832 194.270752,298.024170 195.197693,296.518890 
	C197.700836,292.453979 199.866272,288.128326 202.777176,284.381165 
	C206.134796,280.058899 208.361084,275.629272 207.706665,270.042267 
	C207.301956,266.587311 206.927551,263.127045 206.639633,259.660828 
	C206.435730,257.206085 205.311584,256.009766 202.853409,255.189194 
	C197.879623,253.528885 195.283173,256.084259 193.351257,259.892517 
	C190.235672,266.034058 190.785187,273.282288 186.788177,279.436981 
	C184.619522,282.776337 186.655228,287.833466 189.096634,292.451721 
M230.468887,273.065735 
	C228.662766,274.155396 226.856644,275.245026 224.383240,276.737244 
	C234.645950,285.430237 245.892853,287.416870 258.186676,284.520996 
	C263.351715,283.304321 268.498718,281.634674 271.425842,275.933990 
	C268.533081,275.139069 266.188995,274.813873 264.148132,273.847961 
	C261.930084,272.798187 259.907623,271.284058 258.277863,269.326508 
	C257.284485,268.133331 255.823090,268.407288 254.543732,268.683624 
	C250.910645,269.468323 247.244766,269.221130 243.631989,268.875763 
	C238.843414,268.417938 234.437439,268.712280 230.468887,273.065735 
M84.859100,283.312683 
	C88.083275,281.592865 91.227837,279.695892 94.553169,278.201111 
	C98.151604,276.583588 98.776619,274.719788 95.778320,271.956757 
	C94.824936,271.078156 94.742256,269.438080 92.647804,268.853638 
	C77.836403,275.969971 62.613144,283.284210 46.436829,291.056335 
	C51.266018,294.147064 53.553841,300.029205 59.282551,296.132538 
	C67.051422,290.848114 75.668297,287.373138 84.859100,283.312683 
M290.212830,303.279999 
	C285.392273,299.942963 280.504517,296.961823 274.301422,296.774170 
	C272.146637,296.708954 270.642395,296.858307 269.959412,298.942505 
	C268.178467,304.377075 265.257721,308.690521 259.654053,310.900635 
	C258.436249,311.380981 256.917480,312.190674 256.052277,314.937317 
	C269.643494,313.978668 282.939484,316.190918 297.066101,312.208160 
	C294.075897,309.294128 293.544525,305.799408 290.212830,303.279999 
M264.077148,294.029968 
	C263.173370,292.603973 262.145813,291.627289 260.299957,291.142639 
	C251.006622,288.702576 241.094025,291.175232 231.965149,287.446289 
	C230.679153,286.920990 228.867783,286.701050 227.884811,288.282288 
	C227.013611,289.683716 227.435043,291.239899 228.200577,292.556854 
	C234.165024,302.817230 251.285706,311.083191 263.603180,299.350403 
	C264.960175,298.057800 266.113953,296.534241 264.077148,294.029968 
M265.489044,238.125626 
	C264.236389,235.111374 263.002319,232.085373 260.567749,229.845093 
	C258.194550,231.078033 245.613663,241.527176 244.374741,243.220734 
	C242.178802,246.222519 243.554520,250.524963 247.097687,251.570267 
	C250.468033,252.564575 253.949951,252.612930 257.435333,252.720795 
	C265.422546,252.967957 267.276642,250.969131 266.356415,242.789795 
	C266.209045,241.479767 265.863403,240.192062 265.489044,238.125626 
M212.577682,244.028702 
	C212.914917,243.271805 213.248932,242.513458 213.589966,241.758286 
	C215.106125,238.400848 215.790192,234.711182 213.179108,231.938416 
	C210.600250,229.199844 207.029861,226.746384 203.024765,227.683319 
	C199.302536,228.554077 195.493134,230.230164 195.796906,235.401978 
	C195.892914,237.036530 195.417068,238.696243 195.375549,240.348785 
	C195.203308,247.203156 195.244064,247.142578 205.988998,250.038300 
	C210.852463,251.348999 210.636490,247.021454 212.577682,244.028702 
M173.274933,220.352203 
	C174.481705,224.125183 175.797028,227.868332 176.846375,231.684586 
	C177.323288,233.419006 177.012939,235.489517 179.553085,235.744019 
	C181.978043,235.986984 183.065063,234.315887 184.076874,232.522614 
	C186.611252,228.030869 186.224045,222.998871 185.478043,218.414902 
	C184.590088,212.958679 183.353027,207.286743 180.135849,202.494904 
	C173.990829,205.392395 171.922363,210.523621 170.090210,215.807861 
	C170.599747,217.495529 172.811356,217.833939 173.274933,220.352203 
M205.440643,218.682510 
	C209.146255,209.997086 207.098557,204.475906 198.634735,200.569763 
	C197.026154,199.827393 195.216827,198.499237 193.501877,199.854614 
	C191.642395,201.324234 192.359695,203.433289 192.890961,205.392654 
	C194.539352,211.471985 198.049667,216.722824 200.273407,222.503067 
	C202.863007,222.729004 203.919586,220.968582 205.440643,218.682510 
M178.559998,300.922821 
	C170.737015,297.681458 167.810333,297.940002 164.782303,302.139954 
	C162.468231,305.349640 163.459259,308.043549 167.426682,308.481445 
	C170.718170,308.844666 174.078705,308.672150 177.405334,308.594482 
	C179.481522,308.546021 182.062057,309.046082 182.664368,306.095764 
	C183.207687,303.434418 181.284668,302.235626 178.559998,300.922821 
M167.373596,232.921036 
	C165.112640,230.748520 162.813919,231.255264 160.701813,233.036682 
	C157.812134,235.473892 155.052917,238.065781 152.417664,240.430023 
	C157.934677,249.079895 158.209763,249.140015 164.535904,242.956467 
	C165.825821,241.695602 166.972260,240.249725 167.985672,238.754181 
	C169.170532,237.005630 169.715240,235.122711 167.373596,232.921036 
M131.650864,252.090317 
	C129.516266,249.026611 127.519333,251.433823 125.711189,252.422623 
	C123.747818,253.496338 124.616035,255.277435 125.295280,256.818298 
	C126.476074,259.497009 128.546890,261.750214 128.722687,265.690430 
	C131.069382,263.397217 133.865814,263.378876 135.299255,260.938568 
	C134.187759,258.199921 133.075836,255.460175 131.650864,252.090317 
M151.533936,247.703033 
	C149.901138,244.355698 147.077591,241.845261 143.793167,244.233917 
	C139.339569,247.472855 145.188583,249.805939 145.151978,253.295410 
	C147.927505,251.788437 150.705322,251.399887 151.533936,247.703033 
M167.653717,221.917755 
	C161.600082,218.508347 162.835236,225.288834 160.350830,226.946930 
	C162.686920,226.709274 164.839523,226.145309 166.981476,225.543365 
	C168.787781,225.035751 168.713028,223.851212 167.653717,221.917755 
M238.598511,312.236725 
	C236.847824,312.231110 235.070587,310.360413 233.144989,312.143799 
	C236.818924,315.181915 241.061462,315.690399 247.484283,313.812531 
	C244.493576,313.296936 241.928909,312.854767 238.598511,312.236725 
M241.687561,256.263428 
	C241.652039,258.126190 241.196854,260.145721 243.646942,261.464417 
	C244.770020,259.424652 245.914383,257.552124 244.722565,255.482712 
	C244.067245,254.344803 242.784149,254.376694 241.687561,256.263428 
z"/>
<path fill="#000000" opacity="1.000000" stroke="none" 
	d="
M275.383362,137.350494 
	C270.705872,142.459244 264.943848,145.070969 258.773285,146.441422 
	C249.161011,148.576248 230.913635,138.152069 235.140991,123.351562 
	C237.618713,114.676765 240.708389,107.084930 249.737305,104.201248 
	C257.104919,101.848152 264.260925,100.846153 271.641968,106.480980 
	C278.150299,111.449585 281.424072,116.862251 281.412292,124.787308 
	C281.404724,129.872589 278.759064,133.559860 275.383362,137.350494 
M265.411560,131.898239 
	C269.698730,127.892418 272.049561,122.850594 273.372223,117.223549 
	C273.873749,115.089798 273.578217,113.348068 271.869873,111.819733 
	C264.937286,105.617699 249.692139,103.800880 244.047012,115.391815 
	C242.047913,119.496529 241.452209,123.409302 241.247147,127.776993 
	C240.994598,133.156235 243.676178,136.100784 248.094421,138.189529 
	C252.851379,140.438416 257.131409,139.655792 260.994537,136.249207 
	C262.363525,135.041992 263.595703,133.679626 265.411560,131.898239 
z"/>
</svg>